HIERARCHY
ROOT Hips
{
	OFFSET 0.00000 0.00000 0.00000
	CHANNELS 6 Xposition Yposition Zposition Zrotation Yrotation Xrotation 
	JOINT LHipJoint
	{
		OFFSET 0 0 0
		CHANNELS 3 Zrotation Yrotation Xrotation
		JOINT LeftHip
		{
			OFFSET 1.73240 -1.89999 0.57994
			CHANNELS 3 Zrotation Yrotation Xrotation
			JOINT LeftKnee
			{
				OFFSET 2.43106 -6.67930 0.00000
				CHANNELS 3 Zrotation Yrotation Xrotation
				JOINT LeftAnkle
				{
					OFFSET 2.78854 -7.66147 0.00000
					CHANNELS 3 Zrotation Yrotation Xrotation
					JOINT LeftToe
					{
						OFFSET 0.17314 -0.47571 2.01064
						CHANNELS 3 Zrotation Yrotation Xrotation
						End Site
						{
							OFFSET 0.00000 -0.00000 1.04147
						}
					}
				}
			}
		}
	}
	JOINT RHipJoint
	{
		OFFSET 0 0 0
		CHANNELS 3 Zrotation Yrotation Xrotation
		JOINT RightHip
		{
			OFFSET -1.57078 -1.89998 0.57994
			CHANNELS 3 Zrotation Yrotation Xrotation
			JOINT RightKnee
			{
				OFFSET -2.50166 -6.87326 0.00000
				CHANNELS 3 Zrotation Yrotation Xrotation
				JOINT RightAnkle
				{
					OFFSET -2.77304 -7.61886 0.00000
					CHANNELS 3 Zrotation Yrotation Xrotation
					JOINT RightToe
					{
						OFFSET -0.23513 -0.64602 2.11039
						CHANNELS 3 Zrotation Yrotation Xrotation
						End Site
						{
							OFFSET -0.00000 -0.00000 1.10597
						}
					}
				}
			}
		}
	}
	JOINT lowerback
	{
		OFFSET 0 0 0
		CHANNELS 3 Zrotation Yrotation Xrotation
		JOINT Chest
		{
			OFFSET -0.00908 2.00015 -0.35323
			CHANNELS 3 Zrotation Yrotation Xrotation
			JOINT Chest2
			{
				OFFSET 0.05647 2.02258 0.04270
				CHANNELS 3 Zrotation Yrotation Xrotation
				JOINT lowerneck
				{
					OFFSET 0 0 0
					CHANNELS 3 Zrotation Yrotation Xrotation
					JOINT Neck
					{
						OFFSET -0.02074 1.73711 0.13117
						CHANNELS 3 Zrotation Yrotation Xrotation
						JOINT Head
						{
							OFFSET -0.02359 1.73615 -0.24320
							CHANNELS 3 Zrotation Yrotation Xrotation
							End Site
							{
								OFFSET -0.00579 1.75982 -0.09688
							}
						}
					}
				}
				JOINT LeftCollar
				{
					OFFSET 0 0 0
					CHANNELS 3 Zrotation Yrotation Xrotation
					JOINT LeftShoulder
					{
						OFFSET 3.20537 1.11432 -0.27680
CHANNELS 3 Zrotation Xrotation Yrotation
						JOINT LeftElbow
						{
OFFSET 0 -5.059230 -0.000000
CHANNELS 3 Zrotation Xrotation Yrotation
							JOINT LeftWrist
							{
OFFSET 0 -3.519960 0.000000
CHANNELS 3 Zrotation Xrotation Yrotation
								JOINT lhand
								{
									OFFSET 0 0 0
CHANNELS 3 Zrotation Xrotation Yrotation
									JOINT LFingers
									{
OFFSET 0 -0.652380 0.000000
CHANNELS 3 Zrotation Xrotation Yrotation
										End Site
										{
OFFSET 0 -0.525960 0.000000
										}
									}
								}
								JOINT LThumb
								{
OFFSET 0 0.000000 0.000000
CHANNELS 3 Zrotation Xrotation Yrotation
									End Site
									{
OFFSET 0 -0.533990 0.533990
									}
								}
							}
						}
					}
				}
				JOINT RightCollar
				{
					OFFSET 0 0 0
					CHANNELS 3 Zrotation Yrotation Xrotation
					JOINT RightShoulder
					{
						OFFSET -2.96983 1.42602 -0.37449
CHANNELS 3 Zrotation Xrotation Yrotation
						JOINT RightElbow
						{
OFFSET 0 -5.408670 0.000000
CHANNELS 3 Zrotation Xrotation Yrotation
							JOINT RightWrist
							{
OFFSET 0 -3.129640 0.000000
CHANNELS 3 Zrotation Xrotation Yrotation
								JOINT rhand
								{
									OFFSET 0 0 0
CHANNELS 3 Zrotation Xrotation Yrotation
									JOINT RFingers
									{
OFFSET 0 -0.832710 0.000000
CHANNELS 3 Zrotation Xrotation Yrotation
										End Site
										{
OFFSET 0 -0.671350 0.000000
										}
									}
								}
								JOINT RThumb
								{
OFFSET 0 0.000000 0.000000
CHANNELS 3 Zrotation Xrotation Yrotation
									End Site
									{
OFFSET 0 -0.681600 0.681600
									}
								}
							}
						}
					}
				}
			}
		}
	}
}
MOTION
Frames: 11
Frame Time: 0.008333333333333333
1.827000 17.302200 -33.373500 3.099100 11.673200 -1.606900 0.000000 0.000000 0.000000 -27.250600 -2.457700 9.230700 0.782100 5.645900 15.760300 1.100800 -7.655400 -18.753900 0.311200 -3.586000 -9.914800 0.000000 0.000000 0.000000 7.382900 9.068500 -29.868500 -2.068300 -9.006800 25.816700 0.182500 -15.646600 -20.251400 -0.529900 -4.664800 12.955000 -6.052800 -0.953700 20.165900 0.671100 -2.499600 2.324900 4.856500 -0.973900 -8.460000 0.767300 5.897800 -7.795900 -4.293900 9.881400 32.093700 -0.500900 4.046900 12.106000 -0.000000 -0.000000 0.000000 14.130400 -11.030200 -20.368500 21.154600 -32.008300 6.131700 10.163600 36.432400 -55.581700 0.000000 0.000000 0.000000 -7.125000 0.000000 0.000000 -77.368900 75.581600 62.465900 -0.000000 -0.000000 0.000000 -8.899600 6.626400 -1.179700 -20.768600 -31.557200 -5.928400 -8.418700 -2.352000 -5.038600 0.000000 0.000000 0.000000 7.125000 0.000000 -0.000000 13.583200 24.872900 6.793600
1.820142 17.298771 -33.312766 3.193597 11.452290 -1.478640 0.000000 0.000000 0.000000 -27.291617 -2.246682 9.370632 0.761196 5.571516 15.546116 1.088469 -7.635683 -18.648061 0.317926 -3.624313 -10.022156 0.000000 0.000000 0.000000 7.331135 9.410218 -29.992605 -2.017260 -8.901489 25.487973 0.174455 -15.696321 -20.419753 -0.538341 -4.701069 13.058003 -6.216273 -0.910837 20.248131 0.639183 -2.492280 2.224337 4.919806 -0.956557 -8.611340 0.996123 5.872808 -7.503640 -4.552397 9.852913 31.855975 -0.651185 4.043735 11.977411 0.000000 0.000000 0.000000 13.579906 -10.828480 -20.094176 20.801342 -31.594506 5.946070 9.176693 34.671320 -54.751409 0.000000 0.000000 0.000000 -7.125000 0.000000 0.000000 -74.494500 75.073969 59.146845 0.000000 0.000000 0.000000 -8.822842 6.803524 -0.989190 -20.995840 -31.823017 -6.048021 -8.250874 -2.233566 -5.099993 0.000000 0.000000 0.000000 7.125000 0.000000 0.000000 13.700051 24.814145 6.874710
1.814113 17.293237 -33.251363 3.247502 11.246335 -1.390813 0.000000 0.000000 0.000000 -27.307220 -2.055114 9.588207 0.736721 5.482974 15.291533 1.075181 -7.529012 -18.530105 0.326247 -3.671012 -10.152980 0.000000 0.000000 0.000000 7.325668 9.701555 -30.129529 -1.980409 -8.825066 25.249676 0.170555 -15.749359 -20.546303 -0.546877 -4.737625 13.161836 -6.301688 -0.928112 20.489285 0.624900 -2.555175 2.134806 4.983749 -0.971834 -8.830789 0.949925 5.946631 -7.736518 -4.487885 9.970752 32.074353 -0.593091 4.084094 12.113894 0.000000 0.000000 0.000000 12.991244 -10.653480 -19.532141 20.454653 -31.185113 5.765414 8.136855 32.949109 -55.487317 0.000000 0.000000 0.000000 -7.125000 0.000000 0.000000 -77.389703 74.741331 61.648443 0.000000 0.000000 0.000000 -8.832146 6.849721 -0.669699 -21.178440 -32.035903 -6.144429 -8.116307 -2.135635 -5.124398 0.000000 0.000000 0.000000 7.125000 0.000000 0.000000 13.796240 24.791485 6.933149
1.808969 17.285456 -33.189244 3.258053 11.056353 -1.346169 0.000000 0.000000 0.000000 -27.295680 -1.884321 9.888710 0.708431 5.379312 14.993799 1.060871 -7.329467 -18.399208 0.336270 -3.726668 -10.308869 0.000000 0.000000 0.000000 7.369652 9.939083 -30.280143 -1.958714 -8.779500 25.107964 0.171083 -15.805938 -20.628205 -0.555516 -4.774487 13.266554 -6.303733 -1.009618 20.900177 0.629450 -2.693062 2.057059 5.048373 -1.021951 -9.122983 0.609988 6.125997 -8.530276 -4.078377 10.244878 32.779880 -0.312437 4.170942 12.533490 0.000000 0.000000 0.000000 12.361815 -10.507020 -18.662811 20.114979 -30.780419 5.590071 7.040483 31.268414 -57.896026 0.000000 0.000000 0.000000 -7.125000 0.000000 0.000000 -86.447205 74.595596 70.366865 0.000000 0.000000 0.000000 -8.933369 6.756082 -0.212449 -21.313360 -32.192254 -6.216043 -8.017260 -2.059602 -5.109297 0.000000 0.000000 0.000000 7.125000 0.000000 0.000000 13.870361 24.807377 6.967374
1.806504 17.276782 -33.125468 3.416493 10.978419 -1.177168 0.000000 0.000000 0.000000 -27.433687 -1.787122 10.065366 0.687220 5.299628 14.765195 1.050579 -7.262316 -18.307531 0.325057 -3.664153 -10.133586 0.000000 0.000000 0.000000 7.262877 9.889377 -30.555497 -1.931534 -8.721880 24.929264 0.160896 -15.709653 -20.593784 -0.578376 -4.869382 13.536507 -6.390531 -0.944127 20.844889 0.486238 -2.648622 1.820198 4.932329 -0.984316 -9.366455 1.246797 6.032542 -7.403768 -4.349901 10.022532 32.454836 -0.595918 4.154158 12.210069 0.000000 0.000000 0.000000 11.971791 -10.099474 -18.500149 19.740868 -30.327449 5.400570 6.918562 29.866662 -58.546451 0.000000 0.000000 0.000000 -7.125000 0.000000 0.000000 -88.825255 74.539399 72.735477 0.000000 0.000000 0.000000 -8.638880 7.405015 -0.170934 -21.641703 -32.568622 -6.392373 -8.057111 -2.258559 -5.181629 0.000000 0.000000 0.000000 7.125000 0.000000 0.000000 13.833771 24.735964 6.971561
1.803506 17.267661 -33.059941 3.538364 10.879843 -1.009017 0.000000 0.000000 0.000000 -27.519016 -1.661404 10.221672 0.667379 5.224236 14.549166 1.042652 -7.249147 -18.238139 0.301799 -3.528645 -9.754442 0.000000 0.000000 0.000000 7.185888 9.911556 -30.816999 -1.908120 -8.671962 24.774593 0.160449 -15.668550 -20.535228 -0.584484 -4.894815 13.608825 -6.507553 -0.966853 20.774657 0.453029 -2.703976 1.815207 4.973961 -1.009041 -9.322608 1.486259 6.085812 -7.147167 -4.575541 10.091268 32.191268 -0.723302 4.199609 12.079715 0.000000 0.000000 0.000000 11.435389 -10.116215 -17.806884 19.373965 -29.879552 5.216442 7.105717 28.670440 -58.616143 0.000000 0.000000 0.000000 -7.125000 0.000000 0.000000 -89.075821 74.601458 73.063065 0.000000 0.000000 0.000000 -8.591715 7.445907 0.110090 -21.929558 -32.896879 -6.547750 -8.152087 -2.426251 -5.223386 0.000000 0.000000 0.000000 7.125000 0.000000 0.000000 13.759983 24.694030 6.946080
1.799747 17.258034 -32.992349 3.609517 10.751451 -0.847060 0.000000 0.000000 0.000000 -27.533919 -1.497865 10.358306 0.648915 5.153083 14.345599 1.037443 -7.296296 -18.194286 0.264739 -3.309054 -9.140511 0.000000 0.000000 0.000000 7.151466 10.033287 -31.056439 -1.889524 -8.631935 24.650752 0.172319 -15.701060 -20.452073 -0.569581 -4.833158 13.433350 -6.657904 -1.103224 20.705549 0.560055 -2.888551 2.099488 5.215314 -1.113429 -8.930509 1.200790 6.329275 -8.030741 -4.716989 10.535462 32.045401 -0.636982 4.325231 12.215558 0.000000 0.000000 0.000000 10.710607 -10.661038 -16.437441 19.017278 -29.439843 5.039450 7.629240 27.713208 -58.050812 0.000000 0.000000 0.000000 -7.125000 0.000000 0.000000 -87.009886 74.803970 71.165878 0.000000 0.000000 0.000000 -8.862478 6.714728 0.700348 -22.160030 -33.157355 -6.673240 -8.308504 -2.544422 -5.224244 0.000000 0.000000 0.000000 7.125000 0.000000 0.000000 13.645440 24.691656 6.885676
1.793217 17.248283 -32.925866 3.640689 10.523879 -0.708698 0.000000 0.000000 0.000000 -27.505146 -1.260033 10.561964 0.616899 5.025626 13.981804 1.025888 -7.215312 -18.089632 0.236920 -3.129505 -8.639743 0.000000 0.000000 0.000000 7.176182 10.265041 -31.342759 -1.884912 -8.622031 24.619992 0.204764 -15.806939 -20.247069 -0.535150 -4.685997 13.015346 -6.796981 -1.055957 20.562456 0.586258 -2.844642 2.116475 5.304384 -1.092332 -8.831331 1.203623 6.295771 -8.030377 -4.692295 10.478456 32.088347 -0.635920 4.300974 12.229120 0.000000 0.000000 0.000000 10.145622 -10.532174 -15.866553 18.846200 -29.226831 4.955663 8.216091 26.420857 -57.822201 0.000000 0.000000 0.000000 -7.125000 0.000000 0.000000 -86.151301 75.011040 70.525570 0.000000 0.000000 0.000000 -8.854304 6.811982 0.923330 -22.515000 -33.552864 -6.868957 -8.338390 -2.775140 -5.073312 0.000000 0.000000 0.000000 7.125000 0.000000 0.000000 13.638639 24.839531 6.833712
1.788088 17.239129 -32.860315 3.700254 10.327856 -0.545691 0.000000 0.000000 0.000000 -27.538331 -1.129436 10.794641 0.584919 4.895991 13.612283 1.014933 -7.058639 -17.988021 0.228978 -3.078662 -8.497912 0.000000 0.000000 0.000000 7.177877 10.413976 -31.659349 -1.881423 -8.614525 24.596700 0.233039 -15.852924 -19.991747 -0.508350 -4.570218 12.686689 -6.887940 -1.010102 20.469324 0.572472 -2.801243 2.086449 5.325952 -1.068812 -8.816204 1.176855 6.235150 -8.056705 -4.576755 10.368617 32.221064 -0.601255 4.257396 12.275054 0.000000 0.000000 0.000000 9.624952 -10.322374 -15.376778 18.724506 -29.074885 4.896293 8.956042 25.131393 -57.833110 0.000000 0.000000 0.000000 -7.125000 0.000000 0.000000 -86.220802 75.264737 70.881544 0.000000 0.000000 0.000000 -8.778353 6.976313 1.038431 -22.866430 -33.941497 -7.064003 -8.328150 -2.999217 -4.992780 0.000000 0.000000 0.000000 7.125000 0.000000 0.000000 13.654195 24.918688 6.816085
1.785186 17.230820 -32.795955 3.803324 10.185550 -0.346015 0.000000 0.000000 0.000000 -27.662173 -1.155615 11.061183 0.554321 4.768853 13.250519 1.005438 -6.809044 -17.896624 0.247838 -3.203294 -8.845301 0.000000 0.000000 0.000000 7.141674 10.436660 -32.013530 -1.878126 -8.607403 24.574675 0.253482 -15.808214 -19.678253 -0.494106 -4.506583 12.506401 -6.912932 -0.984252 20.453102 0.510881 -2.780999 2.017143 5.268384 -1.054239 -8.889466 1.080512 6.163932 -8.207055 -4.350900 10.234356 32.460372 -0.511374 4.201608 12.378124 0.000000 0.000000 0.000000 9.150359 -10.065921 -14.921638 18.653419 -28.985796 4.861805 9.903185 23.878867 -58.144823 0.000000 0.000000 0.000000 -7.125000 0.000000 0.000000 -87.465414 75.582979 72.502824 0.000000 0.000000 0.000000 -8.635322 7.152777 1.039222 -23.200696 -34.307284 -7.251216 -8.274406 -3.202981 -5.025290 0.000000 0.000000 0.000000 7.125000 0.000000 0.000000 13.690332 24.887299 6.845496
1.763742 17.239687 -32.703007 3.751393 11.005515 -0.395360 0.000000 0.000000 0.000000 -27.306751 -1.306900 11.717305 0.528062 4.655978 12.930059 0.963848 -7.214690 -17.539861 0.265152 -3.311880 -9.148413 0.000000 0.000000 0.000000 7.102322 10.508674 -31.604183 -1.880772 -8.613178 24.592588 0.250389 -16.337503 -20.567492 -0.554094 -4.763051 13.234952 -6.783995 -1.333480 20.928920 0.487743 -3.256420 1.793550 5.331166 -1.256713 -9.342740 1.538733 6.217343 -7.587162 -4.667721 10.283147 32.133587 -0.725906 4.264447 12.165666 0.000000 0.000000 0.000000 8.809250 -9.256865 -14.372357 18.733706 -29.086356 4.900775 10.595481 21.888607 -58.331669 0.000000 0.000000 0.000000 -7.125000 0.000000 0.000000 -88.282886 75.808447 73.588143 0.000000 0.000000 0.000000 -8.426083 7.707707 1.239409 -23.531397 -34.663681 -7.438785 -8.315992 -3.336854 -5.078185 0.000000 0.000000 0.000000 7.125000 0.000000 0.000000 13.654556 24.834931 6.843645
